# This file uses centimeters as units for non-parametric coordinates.

mtllib 1477.mtl
g default
v -9.391760 0.000000 -6.895575
v -9.391760 0.050800 -6.895575
v -9.391760 0.000000 8.146133
v -9.391760 0.050800 8.146133
v 3.117739 0.000000 -6.677220
v 3.117739 0.000000 7.927779
v 3.117739 0.050800 -6.677220
v 3.117739 0.050800 7.927779
v 10.420240 0.000000 0.625279
v 10.420240 0.050800 0.625279
vn 0.017452 0.000000 -0.999848
vn 0.017452 0.000000 -0.999848
vn 0.017452 0.000000 -0.999848
vn 0.017452 0.000000 -0.999848
vn 0.017452 0.000000 -0.999848
vn 0.017452 0.000000 -0.999848
vn -1.000000 0.000000 0.000000
vn -1.000000 0.000000 0.000000
vn -1.000000 0.000000 0.000000
vn 0.000000 -1.000000 0.000000
vn 0.000000 -1.000000 0.000000
vn 0.000000 -1.000000 0.000000
vn 0.000000 -1.000000 0.000000
vn 0.000000 -1.000000 0.000000
vn 0.000000 -1.000000 0.000000
vn 0.000000 -1.000000 0.000000
vn 0.000000 -1.000000 0.000000
vn 0.000000 -1.000000 0.000000
vn 0.707107 0.000000 -0.707107
vn 0.707107 0.000000 -0.707107
vn 0.707107 0.000000 -0.707107
vn 0.707107 0.000000 -0.707107
vn 0.707107 0.000000 -0.707107
vn 0.707107 0.000000 -0.707107
vn 0.707107 0.000000 0.707107
vn 0.707107 0.000000 0.707107
vn 0.707107 0.000000 0.707107
vn 0.707107 0.000000 0.707107
vn 0.707107 0.000000 0.707107
vn 0.707107 0.000000 0.707107
vn 0.017452 0.000000 0.999848
vn 0.017452 0.000000 0.999848
vn 0.017452 0.000000 0.999848
vn 0.017452 0.000000 0.999848
vn 0.017452 0.000000 0.999848
vn 0.017452 0.000000 0.999848
vn -1.000000 0.000000 0.000000
vn -1.000000 0.000000 0.000000
vn -1.000000 0.000000 0.000000
vn 0.000000 1.000000 0.000000
vn 0.000000 1.000000 0.000000
vn 0.000000 1.000000 0.000000
vn 0.000000 1.000000 0.000000
vn 0.000000 1.000000 0.000000
vn 0.000000 1.000000 0.000000
vn 0.000000 1.000000 0.000000
vn 0.000000 1.000000 0.000000
vn 0.000000 1.000000 0.000000
s off
g polySurface8 transform9
usemtl phong9SG
f 2//1 7//2 1//3
f 7//4 5//5 1//6
f 3//7 2//8 1//9
f 5//10 9//11 1//12
f 9//13 6//14 1//15
f 6//16 3//17 1//18
f 7//19 10//20 5//21
f 10//22 9//23 5//24
f 10//25 8//26 9//27
f 8//28 6//29 9//30
f 8//31 4//32 6//33
f 4//34 3//35 6//36
f 4//37 2//38 3//39
f 8//40 7//41 2//42
f 4//43 8//44 2//45
f 8//46 10//47 7//48
